<svg width="93" height="94" viewBox="0 0 93 94" fill="none" xmlns="http://www.w3.org/2000/svg">
<g filter="url(#filter0_i)">
<path d="M63.2552 17.9094L80.2043 47.2662L63.2552 76.6231L29.3568 76.6231L12.4076 47.2662L29.3568 17.9094L63.2552 17.9094Z" fill="white" fill-opacity="0.8"/>
</g>
<path d="M30.2228 19.4094L62.3891 19.4094L78.4723 47.2662L62.3891 75.1231L30.2228 75.1231L14.1397 47.2662L30.2228 19.4094Z" stroke="url(#paint0_linear)" stroke-width="3" stroke-linejoin="bevel"/>
<g filter="url(#filter1_di)">
<path d="M46.6392 35.6652C46.6392 35.6652 36.9252 35.6652 34.4739 36.3286C33.2029 36.7078 32.1135 37.8452 31.7504 39.1721C31.1149 41.7313 31.1149 47.0391 31.1149 47.0391C31.1149 47.0391 31.1149 52.347 31.7504 54.8113C32.1135 56.2331 33.2029 57.2757 34.4739 57.6548C36.9252 58.3183 46.6392 58.3183 46.6392 58.3183C46.6392 58.3183 56.3533 58.3183 58.8045 57.6548C60.1663 57.2757 61.1649 56.2331 61.5281 54.8113C62.1636 52.2522 62.1636 47.0391 62.1636 47.0391C62.1636 47.0391 62.1636 41.7313 61.5281 39.1721C61.1649 37.7504 60.1663 36.7078 58.8045 36.3286C56.3533 35.6652 46.6392 35.6652 46.6392 35.6652ZM43.5525 42.2052L51.6324 47.0391L43.5525 51.873V42.2052Z" fill="url(#paint1_linear)"/>
</g>
<defs>
<filter id="filter0_i" x="3.93298" y="3.23096" width="84.7459" height="88.0705" filterUnits="userSpaceOnUse" color-interpolation-filters="sRGB">
<feFlood flood-opacity="0" result="BackgroundImageFix"/>
<feBlend mode="normal" in="SourceGraphic" in2="BackgroundImageFix" result="shape"/>
<feColorMatrix in="SourceAlpha" type="matrix" values="0 0 0 0 0 0 0 0 0 0 0 0 0 0 0 0 0 0 127 0" result="hardAlpha"/>
<feOffset/>
<feGaussianBlur stdDeviation="2.5"/>
<feComposite in2="hardAlpha" operator="arithmetic" k2="-1" k3="1"/>
<feColorMatrix type="matrix" values="0 0 0 0 0 0 0 0 0 0 0 0 0 0 0 0 0 0 1 0"/>
<feBlend mode="normal" in2="shape" result="effect1_innerShadow"/>
</filter>
<filter id="filter1_di" x="29.1149" y="34.6652" width="35.0487" height="26.6531" filterUnits="userSpaceOnUse" color-interpolation-filters="sRGB">
<feFlood flood-opacity="0" result="BackgroundImageFix"/>
<feColorMatrix in="SourceAlpha" type="matrix" values="0 0 0 0 0 0 0 0 0 0 0 0 0 0 0 0 0 0 127 0"/>
<feOffset dy="1"/>
<feGaussianBlur stdDeviation="1"/>
<feColorMatrix type="matrix" values="0 0 0 0 0 0 0 0 0 0 0 0 0 0 0 0 0 0 0.25 0"/>
<feBlend mode="normal" in2="BackgroundImageFix" result="effect1_dropShadow"/>
<feBlend mode="normal" in="SourceGraphic" in2="effect1_dropShadow" result="shape"/>
<feColorMatrix in="SourceAlpha" type="matrix" values="0 0 0 0 0 0 0 0 0 0 0 0 0 0 0 0 0 0 127 0" result="hardAlpha"/>
<feOffset dy="1"/>
<feGaussianBlur stdDeviation="1"/>
<feComposite in2="hardAlpha" operator="arithmetic" k2="-1" k3="1"/>
<feColorMatrix type="matrix" values="0 0 0 0 0 0 0 0 0 0 0 0 0 0 0 0 0 0 0.25 0"/>
<feBlend mode="normal" in2="shape" result="effect2_innerShadow"/>
</filter>
<linearGradient id="paint0_linear" x1="58.7137" y1="93.5722" x2="-3.14471e-05" y2="59.6739" gradientUnits="userSpaceOnUse">
<stop stop-color="#00B808"/>
<stop offset="0.203125" stop-color="#FFC400"/>
<stop offset="0.401042" stop-color="#FF8600"/>
<stop offset="0.609375" stop-color="#FF4C3D"/>
<stop offset="0.817708" stop-color="#FE2BF5"/>
<stop offset="1" stop-color="#4111F5"/>
</linearGradient>
<linearGradient id="paint1_linear" x1="60.4375" y1="56.6477" x2="33.0625" y2="37.0852" gradientUnits="userSpaceOnUse">
<stop stop-color="#00B808"/>
<stop offset="0.203125" stop-color="#FFC400"/>
<stop offset="0.401042" stop-color="#FF8600"/>
<stop offset="0.609375" stop-color="#FF4C3D"/>
<stop offset="0.817708" stop-color="#FE2BF5"/>
<stop offset="1" stop-color="#4111F5"/>
</linearGradient>
</defs>
</svg>
